{
  "accessors": [
    {
      "bufferView": 2,
      "componentType": 5126,
      "count": 512,
      "max": [
        0.029633332043886185,
        0.029633330181241035,
        0.017426999285817146
      ],
      "min": [
        -0.029633332043886185,
        -0.029633330181241035,
        -0.03337300196290016
      ],
      "type": "VEC3"
    },
    {
      "bufferView": 2,
      "byteOffset": 6144,
      "componentType": 5126,
      "count": 512,
      "max": [
        0.9951847791671753,
        0.9951847195625305,
        1.0
      ],
      "min": [
        -0.9951847791671753,
        -0.9951847791671753,
        -0.9571845531463623
      ],
      "type": "VEC3"
    },
    {
      "bufferView": 1,
      "componentType": 5126,
      "count": 512,
      "max": [
        0.5935420393943787,
        0.48839232325553894
      ],
      "min": [
        0.26828962564468384,
        0.21014560759067535
      ],
      "type": "VEC2"
    },
    {
      "bufferView": 0,
      "componentType": 5125,
      "count": 762,
      "type": "SCALAR"
    },
    {
      "bufferView": 2,
      "byteOffset": 12288,
      "componentType": 5126,
      "count": 400,
      "max": [
        0.03175000101327896,
        0.03175000101327896,
        0.03175000101327896
      ],
      "min": [
        -0.03175000101327896,
        -0.03175000101327896,
        -5.485724097198386e-10
      ],
      "type": "VEC3"
    },
    {
      "bufferView": 2,
      "byteOffset": 17088,
      "componentType": 5126,
      "count": 400,
      "max": [
        0.9801783561706543,
        0.9801784157752991,
        0.9746067523956299
      ],
      "min": [
        -0.9801782369613647,
        -0.9801782369613647,
        -1.0
      ],
      "type": "VEC3"
    },
    {
      "bufferView": 1,
      "byteOffset": 4096,
      "componentType": 5126,
      "count": 400,
      "max": [
        0.726616382598877,
        0.8507780432701111
      ],
      "min": [
        0.4338761270046234,
        0.30287614464759827
      ],
      "type": "VEC2"
    },
    {
      "bufferView": 0,
      "byteOffset": 3048,
      "componentType": 5125,
      "count": 618,
      "type": "SCALAR"
    },
    {
      "bufferView": 2,
      "byteOffset": 21888,
      "componentType": 5126,
      "count": 264,
      "max": [
        0.01693333312869072,
        0.004233332350850105,
        0.004233332816511393
      ],
      "min": [
        -0.01693333312869072,
        -0.004233332816511393,
        -0.004233333747833967
      ],
      "type": "VEC3"
    },
    {
      "bufferView": 2,
      "byteOffset": 25056,
      "componentType": 5126,
      "count": 264,
      "max": [
        1.0,
        1.0,
        1.0
      ],
      "min": [
        -1.0,
        -1.0,
        -1.0
      ],
      "type": "VEC3"
    },
    {
      "bufferView": 1,
      "byteOffset": 7296,
      "componentType": 5126,
      "count": 264,
      "max": [
        0.8523408770561218,
        0.6587793231010437
      ],
      "min": [
        0.703949511051178,
        0.4744260013103485
      ],
      "type": "VEC2"
    },
    {
      "bufferView": 0,
      "byteOffset": 5520,
      "componentType": 5125,
      "count": 516,
      "type": "SCALAR"
    }
  ],
  "asset": {
    "extras": {
      "author": "Ovenproofmeteor (https://sketchfab.com/Ovenproofmeteor)",
      "license": "CC-BY-4.0 (http://creativecommons.org/licenses/by/4.0/)",
      "source": "https://sketchfab.com/3d-models/low-poly-acorn-abf32903cae743b6a5c46e5d3ae96138",
      "title": "Low-Poly Acorn"
    },
    "generator": "Sketchfab-14.33.0",
    "version": "2.0"
  },
  "bufferViews": [
    {
      "buffer": 0,
      "byteLength": 7584,
      "name": "floatBufferViews",
      "target": 34963
    },
    {
      "buffer": 0,
      "byteLength": 9408,
      "byteOffset": 7584,
      "byteStride": 8,
      "name": "floatBufferViews",
      "target": 34962
    },
    {
      "buffer": 0,
      "byteLength": 28224,
      "byteOffset": 16992,
      "byteStride": 12,
      "name": "floatBufferViews",
      "target": 34962
    }
  ],
  "buffers": [
    {
      "byteLength": 45216,
      "uri": "scene.bin"
    }
  ],
  "images": [
    {
      "uri": "textures/Material.001_baseColor.jpeg"
    },
    {
      "uri": "textures/Material.002_baseColor.jpeg"
    },
    {
      "uri": "textures/Material.003_baseColor.jpeg"
    }
  ],
  "materials": [
    {
      "doubleSided": true,
      "name": "Material.001",
      "pbrMetallicRoughness": {
        "baseColorTexture": {
          "index": 0
        },
        "metallicFactor": 0.0,
        "roughnessFactor": 0.8211145618000169
      }
    },
    {
      "doubleSided": true,
      "name": "Material.002",
      "pbrMetallicRoughness": {
        "baseColorTexture": {
          "index": 1
        },
        "metallicFactor": 0.0,
        "roughnessFactor": 0.8211145618000169
      }
    },
    {
      "doubleSided": true,
      "name": "Material.003",
      "pbrMetallicRoughness": {
        "baseColorTexture": {
          "index": 2
        },
        "metallicFactor": 0.0,
        "roughnessFactor": 0.8211145618000169
      }
    }
  ],
  "meshes": [
    {
      "name": "Acorn_Material.001_0",
      "primitives": [
        {
          "attributes": {
            "NORMAL": 1,
            "POSITION": 0,
            "TEXCOORD_0": 2
          },
          "indices": 3,
          "material": 0,
          "mode": 4
        }
      ]
    },
    {
      "name": "AcornTop_Material.002_0",
      "primitives": [
        {
          "attributes": {
            "NORMAL": 5,
            "POSITION": 4,
            "TEXCOORD_0": 6
          },
          "indices": 7,
          "material": 1,
          "mode": 4
        }
      ]
    },
    {
      "name": "AcornStem_Material.003_0",
      "primitives": [
        {
          "attributes": {
            "NORMAL": 9,
            "POSITION": 8,
            "TEXCOORD_0": 10
          },
          "indices": 11,
          "material": 2,
          "mode": 4
        }
      ]
    }
  ],
  "nodes": [
    {
      "children": [
        1
      ],
      "matrix": [
        1.0,
        0.0,
        0.0,
        0.0,
        0.0,
        2.220446049250313e-16,
        -1.0,
        0.0,
        0.0,
        1.0,
        2.220446049250313e-16,
        0.0,
        0.0,
        0.0,
        0.0,
        1.0
      ],
      "name": "Sketchfab_model"
    },
    {
      "children": [
        2
      ],
      "matrix": [
        0.009999999776482582,
        0.0,
        0.0,
        0.0,
        0.0,
        0.0,
        0.009999999776482582,
        0.0,
        0.0,
        -0.009999999776482582,
        0.0,
        0.0,
        0.0,
        0.0,
        0.0,
        1.0
      ],
      "name": "Acorn.fbx"
    },
    {
      "children": [
        3,
        9
      ],
      "name": "RootNode"
    },
    {
      "children": [
        4,
        5
      ],
      "matrix": [
        100.0,
        0.0,
        0.0,
        0.0,
        0.0,
        -1.629206793918314e-05,
        -99.99999999999868,
        0.0,
        0.0,
        99.99999999999868,
        -1.629206793918314e-05,
        0.0,
        0.0,
        3.809999942779541,
        0.0,
        1.0
      ],
      "name": "Acorn"
    },
    {
      "mesh": 0,
      "name": "Acorn_Material.001_0"
    },
    {
      "children": [
        6,
        7
      ],
      "matrix": [
        1.0,
        0.0,
        0.0,
        0.0,
        0.0,
        1.0,
        -2.646977960169688e-23,
        0.0,
        0.0,
        2.646977960169688e-23,
        1.0,
        0.0,
        0.0,
        0.0,
        0.013860318809747696,
        1.0
      ],
      "name": "AcornTop"
    },
    {
      "mesh": 1,
      "name": "AcornTop_Material.002_0"
    },
    {
      "children": [
        8
      ],
      "matrix": [
        0.9999999403953552,
        0.0,
        0.0,
        0.0,
        0.0,
        0.9999999403953552,
        -5.293955920339376e-23,
        0.0,
        0.0,
        5.293956235883757e-23,
        1.0,
        0.0,
        0.01269999984651804,
        1.6543612251060553e-24,
        0.03175000101327896,
        1.0
      ],
      "name": "AcornStem"
    },
    {
      "mesh": 2,
      "name": "AcornStem_Material.003_0"
    },
    {
      "children": [
        10
      ],
      "matrix": [
        100.0,
        0.0,
        0.0,
        0.0,
        0.0,
        99.99999999999972,
        -7.5497901264043296e-06,
        0.0,
        0.0,
        7.5497901264043296e-06,
        99.99999999999972,
        0.0,
        0.0,
        100.0,
        0.0,
        1.0
      ],
      "name": "Sun"
    },
    {
      "children": [
        11
      ],
      "matrix": [
        1.0,
        0.0,
        0.0,
        0.0,
        0.0,
        2.220446049250313e-16,
        1.0,
        0.0,
        0.0,
        -1.0,
        2.220446049250313e-16,
        0.0,
        0.0,
        0.0,
        0.0,
        1.0
      ],
      "name": "Object_10"
    },
    {
      "name": "Object_11"
    }
  ],
  "samplers": [
    {
      "magFilter": 9729,
      "minFilter": 9987,
      "wrapS": 10497,
      "wrapT": 10497
    }
  ],
  "scene": 0,
  "scenes": [
    {
      "name": "Sketchfab_Scene",
      "nodes": [
        0
      ]
    }
  ],
  "textures": [
    {
      "sampler": 0,
      "source": 0
    },
    {
      "sampler": 0,
      "source": 1
    },
    {
      "sampler": 0,
      "source": 2
    }
  ]
}
